<?xml version="1.0" standalone="no"?>
<!DOCTYPE svg PUBLIC "-//W3C//DTD SVG 20010904//EN"
 "http://www.w3.org/TR/2001/REC-SVG-20010904/DTD/svg10.dtd">
<svg version="1.0" xmlns="http://www.w3.org/2000/svg"
 width="480.000000pt" height="480.000000pt" viewBox="0 0 480.000000 480.000000"
 preserveAspectRatio="xMidYMid meet">
<metadata>
Created by potrace 1.14, written by Peter Selinger 2001-2017
</metadata>
<g transform="translate(0.000000,480.000000) scale(0.100000,-0.100000)"
fill="#000000" stroke="none">
<path d="M2486 4562 c-2 -1 -24 -3 -50 -4 -41 0 -47 -3 -53 -27 -3 -14 -16
-50 -28 -79 l-21 -52 -30 72 -30 73 -77 1 c-42 0 -78 -2 -78 -5 -1 -3 -3 -19
-5 -36 -2 -16 -5 -46 -8 -65 -2 -19 -8 -64 -12 -100 -4 -36 -8 -72 -10 -80 -1
-8 -3 -20 -3 -27 -1 -10 -24 -22 -56 -29 -5 -1 -17 -5 -25 -8 -12 -5 -22 18
-49 106 -18 62 -34 120 -35 128 -6 35 -19 61 -29 57 -7 -2 -43 -12 -80 -22
-61 -16 -68 -21 -63 -39 3 -12 19 -70 36 -131 17 -60 32 -117 34 -125 2 -8 8
-24 12 -35 7 -18 6 -19 -11 -5 -11 8 -36 31 -56 50 -79 76 -202 185 -208 185
-8 -1 -65 -28 -71 -35 -3 -3 -18 -12 -35 -21 -16 -9 -29 -20 -28 -26 1 -5 5
-49 8 -97 4 -49 8 -97 10 -108 2 -11 7 -47 10 -81 12 -136 17 -182 20 -185 1
-2 37 14 80 35 l77 38 -4 37 c-3 35 -1 38 40 59 l44 21 31 -22 c29 -22 32 -23
59 -7 33 19 348 108 396 111 47 4 47 3 51 110 1 37 10 29 37 -37 27 -62 40
-72 86 -63 33 6 36 10 53 66 10 33 21 60 26 60 6 0 18 -60 20 -103 0 -15 10
-17 85 -15 46 2 85 7 85 11 1 6 -8 60 -27 152 -2 11 -6 34 -9 50 -3 17 -10 50
-15 75 -12 57 -20 96 -27 142 -5 34 -8 37 -35 35 -16 -1 -31 -3 -32 -5z"/>
<path d="M2855 4498 c-3 -7 -13 -38 -23 -70 l-19 -56 44 -13 c34 -9 43 -16 38
-28 -4 -9 -8 -23 -10 -31 -2 -8 -16 -53 -30 -100 -34 -108 -45 -145 -45 -146
0 -3 59 -24 107 -38 l52 -15 10 32 c23 80 72 243 76 254 3 9 13 9 41 2 40 -12
51 -6 58 31 2 14 5 25 6 25 3 0 11 39 13 59 2 14 -10 22 -48 33 -27 8 -59 19
-70 23 -29 11 -171 50 -184 50 -7 0 -14 -6 -16 -12z"/>
<path d="M3236 4328 c-58 -16 -128 -90 -146 -153 -37 -130 10 -238 131 -300
127 -66 270 -14 337 121 16 32 20 56 18 103 -6 93 -59 171 -149 218 -39 20
-139 26 -191 11z m162 -199 c25 -48 -14 -116 -65 -113 -16 1 -34 2 -40 3 -20
2 -46 49 -45 82 2 76 114 98 150 28z"/>
<path d="M1216 4163 c-39 -10 -217 -152 -209 -167 7 -11 74 -97 83 -106 3 -3
18 -23 35 -45 16 -22 42 -53 57 -70 15 -16 28 -33 28 -36 0 -3 9 -17 21 -30
12 -13 27 -33 35 -43 16 -23 36 -15 93 34 18 17 38 30 42 30 5 0 9 5 9 11 0
11 -50 82 -62 87 -16 7 -7 25 32 64 62 63 65 130 10 206 -42 59 -106 82 -174
65z m36 -185 c-15 -15 -26 -4 -18 18 5 13 9 15 18 6 9 -9 9 -15 0 -24z"/>
<path d="M3639 4046 c-132 -141 -151 -165 -164 -203 -24 -69 -2 -137 62 -199
49 -48 90 -67 143 -67 75 0 96 15 270 196 l65 67 -62 60 -61 59 -98 -104 c-53
-57 -103 -106 -111 -109 -30 -12 -61 22 -46 49 5 7 50 57 101 110 50 54 92
101 92 104 0 4 -26 32 -58 62 l-58 56 -75 -81z"/>
<path d="M2358 4035 c-2 -2 -37 -5 -78 -8 -399 -28 -807 -245 -1068 -567 -29
-36 -62 -76 -73 -89 -11 -13 -29 -42 -41 -65 -11 -23 -24 -43 -28 -46 -19 -13
-126 -255 -146 -330 -2 -8 -11 -40 -19 -70 -19 -67 -31 -127 -41 -200 -10 -79
-12 -304 -3 -364 4 -28 10 -67 12 -86 9 -64 19 -104 44 -190 93 -315 267 -574
534 -794 64 -53 193 -133 293 -181 148 -71 285 -113 462 -142 94 -15 430 -8
493 11 9 3 32 8 51 11 94 15 352 109 391 142 8 7 20 13 26 13 15 0 200 125
263 178 63 54 158 150 198 200 15 19 32 40 37 46 6 6 37 50 68 97 88 134 167
310 208 469 57 219 63 487 14 725 -9 47 -47 179 -53 190 -4 6 -7 12 -7 15 -1
14 -53 133 -84 190 -81 152 -164 263 -297 395 -166 166 -392 304 -614 374 -86
27 -222 58 -260 59 -8 1 -28 3 -45 6 -29 6 -232 15 -237 11z"/>
<path d="M752 3726 c-23 -35 -51 -74 -62 -86 -11 -13 -20 -26 -20 -30 0 -3 -9
-16 -20 -27 l-20 -22 42 -33 c23 -18 49 -37 58 -43 34 -20 149 -102 211 -148
l64 -49 20 25 c11 13 26 33 33 43 7 10 35 50 62 89 28 38 50 74 50 80 0 10
-75 63 -137 97 -33 18 -48 29 -112 83 -54 46 -109 85 -118 85 -4 0 -27 -29
-51 -64z m159 -54 c-5 -9 -19 -26 -32 -37 -17 -15 -15 -10 7 17 32 41 40 48
25 20z m115 -100 c-8 -16 -22 -35 -32 -43 -10 -8 -5 4 11 29 32 48 42 55 21
14z"/>
<path d="M4048 3773 c-3 -9 -96 -73 -104 -73 -3 0 -11 -6 -19 -12 -7 -7 -65
-48 -129 -91 l-115 -79 47 -68 47 -68 26 19 c39 27 42 24 20 -20 l-20 -39 49
-71 c32 -46 51 -86 55 -114 11 -74 59 -149 110 -172 34 -15 98 -14 138 2 40
16 77 60 80 93 1 20 7 21 82 18 58 -2 80 0 81 10 1 6 3 13 4 15 6 5 7 47 1 47
-4 0 -8 12 -9 28 -1 15 -14 50 -27 79 -21 42 -35 56 -75 76 -42 21 -56 23 -94
16 -56 -10 -92 -33 -112 -70 -13 -26 -18 -28 -60 -23 -26 2 -50 6 -54 9 -4 3
-1 24 7 48 l14 44 47 -4 c106 -9 192 96 158 193 -12 35 -127 214 -138 214 -3
0 -8 -3 -10 -7z m26 -631 c-1 -2 -8 6 -14 18 -8 14 -9 35 -4 59 l8 36 6 -55
c4 -30 6 -57 4 -58z"/>
<path d="M634 3424 c-62 -22 -109 -78 -159 -189 l-44 -99 87 -39 c48 -21 103
-46 122 -54 19 -9 37 -17 40 -18 3 0 34 -15 70 -31 110 -52 99 -57 150 59 36
83 44 112 43 157 0 56 -22 111 -61 156 -50 59 -171 87 -248 58z m115 -169 c16
-8 31 -22 35 -30 11 -29 7 -55 -9 -55 -12 0 -116 45 -135 58 -10 7 42 42 62
42 10 0 32 -7 47 -15z"/>
<path d="M1190 1343 c-8 -2 -31 -12 -50 -20 -19 -8 -48 -21 -65 -28 -16 -7
-55 -24 -85 -38 -30 -14 -82 -37 -115 -51 -33 -15 -72 -32 -87 -39 l-27 -12
59 -65 59 -64 34 16 34 16 38 -38 c36 -37 37 -38 21 -68 l-16 -31 60 -61 c34
-33 63 -60 65 -60 3 0 13 19 24 43 10 23 29 65 41 92 13 28 49 108 81 180 l58
129 -54 53 c-29 29 -55 53 -57 52 -1 0 -10 -3 -18 -6z"/>
<path d="M3572 1276 l-53 -52 57 -135 c31 -74 67 -161 81 -194 14 -33 31 -75
39 -94 l15 -35 63 63 64 63 -14 34 c-14 32 -13 36 8 57 50 47 53 49 85 30 l30
-17 52 50 c29 27 57 51 62 52 17 7 9 31 -12 37 -22 7 -358 166 -391 185 -26
15 -28 13 -86 -44z"/>
<path d="M1591 927 c-76 -184 -122 -293 -133 -314 -14 -27 -20 -22 70 -61 l73
-31 9 25 c6 14 10 30 10 37 0 26 20 -11 23 -42 3 -38 1 -37 110 -86 84 -37 91
-40 83 -27 -3 5 -7 22 -10 38 -3 16 -14 61 -24 100 l-19 71 38 17 c59 26 99
109 84 175 -8 39 -54 86 -107 110 -38 17 -170 71 -172 71 -1 0 -16 -38 -35
-83z"/>
<path d="M3010 919 c-148 -53 -140 -49 -130 -67 5 -9 43 -106 86 -214 42 -109
81 -198 86 -198 6 0 24 6 41 14 18 7 66 28 109 46 87 36 126 72 138 125 14 63
-21 134 -77 156 -14 5 -23 17 -23 29 0 26 -25 86 -44 105 -17 17 -60 35 -84
35 -9 0 -55 -14 -102 -31z"/>
<path d="M2209 795 c-6 -119 0 -307 10 -337 21 -64 89 -108 188 -123 52 -8
154 43 184 91 21 34 23 51 26 211 l4 173 -23 1 c-13 1 -50 2 -83 2 l-60 2 -2
-135 c-2 -74 -5 -145 -8 -156 -6 -28 -28 -36 -52 -19 -16 12 -18 30 -19 147
-1 73 -2 140 -3 148 -1 13 -16 16 -81 16 -73 -1 -80 -2 -81 -21z"/>
</g>
</svg>
